# xmcd CD database file
#
# Track frame offsets:
#	150
#	18497
#	37037
#	53825
#	72217
#	88565
#	102652
#	117555
#	138330
#	156302
#
# Disc length: 2381 seconds
#
# Revision: 0
# Processed by: cddbd v1.5PL3 Copyright (c) Steve Scherf et al.
# Submitted via: CDex 1.51
#
DISCID=8c094b0a
DTITLE=Far Cry - The More Things Change...
DYEAR=1980
DGENRE=Rock
TTITLE0=The Hits Just Keep on Coming
TTITLE1=Eldorado Escape
TTITLE2=The One and Lonely
TTITLE3=Because It's There
TTITLE4=It's Not As Simple As That
TTITLE5=Fight, Fight, Fight
TTITLE6=Ocean Eyes
TTITLE7=Suddenly Strings
TTITLE8=Tell Jack
TTITLE9=Some Things Will Never Change
EXTD=YEAR: 1980
EXTT0=
EXTT1=
EXTT2=
EXTT3=
EXTT4=
EXTT5=
EXTT6=
EXTT7=
EXTT8=
EXTT9=
PLAYORDER=
